<svg id="Layer_1" data-name="Layer 1" xmlns="http://www.w3.org/2000/svg" viewBox="0 0 230 56"><defs><style>.cls-1{fill:#5b0000}.cls-2{fill:#850200}.cls-3{fill:#b41621}.cls-4{fill:#340001}.cls-5{fill:#500001}.cls-6{fill:#7f030f}.cls-7{fill:#d21128}</style></defs><title>smallArtboard 111w</title><path d="M156.91 22.69c-.15-3-.1-6-.15-8.88 0-1.39 0-2.82-.1-4.21 0-.26.05-.36.31-.36h1.44c.26 0 .36.05.36.31-.15 4.21-.1 8.42-.1 12.68 0 1.08.05 2.1.1 3.18 0 .31-.1.36-.36.36a4.63 4.63 0 0 1-1.69-.05c-.46-.21-.72-.82-1.08-1.28-3.08-4-6.16-8-9.29-12-.05-.05-.1-.15-.15-.21s-.1.1-.1.15c.15 3.34.1 6.67.15 10 0 1 .05 2 .1 2.93 0 .26 0 .36-.31.36a14.4 14.4 0 0 0-1.49 0c-.26 0-.31-.05-.31-.31.1-2 .1-4 .1-6 0-3.29.05-6.57-.1-9.86 0-.26.05-.41.36-.36a14.4 14.4 0 0 0 1.49 0 .56.56 0 0 1 .46.21l10 12.88c.1.15.21.26.31.41 0 .05 0 .05.05.05zM108.2 23c-1.8 2.41-4.36 2.82-7.13 2.62a7.36 7.36 0 0 1-5-2.16A7.61 7.61 0 0 1 94 19.35a10.53 10.53 0 0 1 .51-5.9 6.86 6.86 0 0 1 5.08-4.36 10.63 10.63 0 0 1 6.67.51 5 5 0 0 1 3.13 5.49c-.05.21-.1.31-.31.26h-1.33c-.26 0-.31-.05-.31-.31a4.54 4.54 0 0 0-.31-2.21 3.71 3.71 0 0 0-2-1.85 7.42 7.42 0 0 0-5.65-.1 5.14 5.14 0 0 0-3.18 3.54 9.54 9.54 0 0 0 .15 6.21 5.26 5.26 0 0 0 4.77 3.54 7.58 7.58 0 0 0 3.85-.51 3.91 3.91 0 0 0 2.46-4.05c0-.26-.15-.26-.31-.26h-4.47c-.31 0-.41-.1-.36-.41s-.1-.82.05-1 .67-.05 1-.05h5.59c.31 0 .36.05.36.36 0 2.36.05 4.72.1 7.13 0 .21-.05.26-.26.26-1 .05-1 .05-1-1 0-.46-.05-1-.05-1.44a.22.22 0 0 0 .02-.2zM179.85 17.45c-.05-2.62-.05-5.24-.15-7.85 0-.31.05-.41.41-.41h11.75c.36 0 .46.1.41.41a4.94 4.94 0 0 0 0 .87c0 .21-.05.26-.26.26h-9.75c-.31 0-.36.05-.36.36v5c0 .31.05.41.41.41h8.57c.31 0 .41.05.31.36a5.66 5.66 0 0 0-.1.92c0 .26-.1.31-.36.31h-8.52c-.21 0-.26.05-.26.26v5.34c0 .31.1.31.36.31h9.6c.36 0 .46.1.46.46a5.55 5.55 0 0 0 0 .92c0 .15-.05.26-.21.21h-12c-.31 0-.41-.1-.41-.41.1-2.49.1-5.11.1-7.73zM170.51 18.22c0-2.36-.05-4.72-.1-7.13 0-.26-.05-.36-.36-.36h-5.55c-.26 0-.36-.05-.31-.36s-.15-.92.05-1.18.77-.05 1.18-.05h12.88c.36 0 .46.1.41.41a2.21 2.21 0 0 0 0 .82c.05.31-.1.36-.36.36H173c-.41 0-.46.1-.46.46-.1 4.67-.05 9.39.05 14.06 0 .31-.05.41-.41.41-.51-.05-1 0-1.54 0-.26 0-.31-.1-.31-.31.08-2.35.13-4.72.18-7.13zM161.37 17.45c0-2.62 0-5.24-.1-7.85 0-.26.05-.36.36-.36.51.05 1.08 0 1.59 0 .26 0 .31.05.31.31-.05 2.26-.1 4.52-.1 6.83 0 3 0 6 .1 9 0 .26-.05.36-.36.36-.51-.05-1 0-1.54 0-.31 0-.36-.05-.36-.36.05-2.31.1-4.62.1-6.93zM126.57 25.46a14.72 14.72 0 0 1-.26-2.1c-.05-.82 0-1.64-.1-2.41a3 3 0 0 0-2.21-2.68 6 6 0 0 0-.92-.21l.05-.05a.76.76 0 0 1 .36-.05 3.34 3.34 0 0 0 2.62-2.36 6.51 6.51 0 0 0 .15-3 3.6 3.6 0 0 0-2.36-2.8 7.11 7.11 0 0 0-2.72-.51h-8.32c-.26 0-.31.1-.26.31.05.72.05 1.44.05 2.1.1 4.57.1 9.14-.05 13.7 0 .31.1.36.36.36a13.42 13.42 0 0 1 1.44 0c.36 0 .46-.05.46-.41-.05-2.05-.05-4.05-.1-6.11 0-.31.1-.36.36-.36h2.67a21 21 0 0 1 3.59.1c1.8.26 2.82 1 2.87 3 0 1.18 0 2.36.1 3.54 0 .21.05.26.31.26h1.75c.16-.06.21-.17.16-.32zm-8.42-8.21H115c-.26 0-.31-.05-.31-.31v-5.85c0-.26.1-.31.31-.31h5.34a13.56 13.56 0 0 1 1.49.1 2.53 2.53 0 0 1 2.41 2.77 9.89 9.89 0 0 1-.05 1.23 2.73 2.73 0 0 1-2.67 2.21 25 25 0 0 1-3.37.16zM142.84 25.2c-1-2.36-2.05-4.72-3-7.13-1.13-2.82-2.21-5.7-3.23-8.57-.1-.21-.21-.31-.41-.31h-1.8c-.31 0-.41.1-.46.36-1.59 4.36-3.23 8.73-5.08 12.93-.46 1.08-.92 2.1-1.39 3.18h1.8a.4.4 0 0 0 .46-.31c.56-1.44 1.18-2.93 1.75-4.36a.45.45 0 0 1 .46-.31h6.57a.46.46 0 0 1 .49.32c.56 1.49 1.18 2.93 1.8 4.36.05.15.1.26.31.26h2.1c-.21-.11-.26-.26-.37-.42zm-5-6h-5.75c1.08-2.72 2.05-5.44 3.08-8.26.21.56.41 1.08.56 1.54.72 2.1 1.49 4.26 2.31 6.36.08.25.13.36-.23.36zM183.09 40h-.87V28.08a1.27 1.27 0 0 1 1.39.46c2.46 3.29 5 6.52 7.44 9.75.1.1.15.21.26.31V28h.82v11.88a1.17 1.17 0 0 1-1.33-.46c-2.46-3.29-5-6.52-7.49-9.8a1.12 1.12 0 0 0-.21-.26zM104.45 32.39h-.82v-1.08a2.52 2.52 0 0 0-1.9-2.36 8 8 0 0 0-4.77.1 2.25 2.25 0 0 0-1.7 1.95 1.69 1.69 0 0 0 .92 1.85 7.53 7.53 0 0 0 2.82.62 16.29 16.29 0 0 1 3.85.62 2.58 2.58 0 0 1 2 2.1 3.05 3.05 0 0 1-1.33 3.13 6.27 6.27 0 0 1-2.87.87 9.61 9.61 0 0 1-4-.36 3.55 3.55 0 0 1-2.65-4.1h.77a6.54 6.54 0 0 0 .05 1 2.78 2.78 0 0 0 2.31 2.36 9.82 9.82 0 0 0 5-.05 2.42 2.42 0 0 0 1.9-2.77 1.87 1.87 0 0 0-1-1.33 6.19 6.19 0 0 0-2.36-.62c-1.28-.15-2.62-.36-3.9-.51a2 2 0 0 1-.51-.15 2.31 2.31 0 0 1-1.75-1.85 2.85 2.85 0 0 1 1-2.77 5.43 5.43 0 0 1 3-1.08 8.66 8.66 0 0 1 3.8.36 3.25 3.25 0 0 1 2.26 3.13 2.91 2.91 0 0 0-.12.94zM106.4 28.13h8.6v.72h-7.7v4.82h7c0 .26-.05.46-.05.72h-6.93v4.88H115V40h-8.6zM136.12 33.62c-.05.26-.05.46-.1.72h-6.93v4.88h7.7v.72h-8.57V28.08h8.57v.72h-7.7v4.82zM150.75 32.7H150v-.41a3.13 3.13 0 0 0-2.31-3.34 6.23 6.23 0 0 0-3.75-.1 4.44 4.44 0 0 0-3.08 3.29 7.51 7.51 0 0 0 0 3.7 4.6 4.6 0 0 0 4.72 3.54 5.77 5.77 0 0 0 2.77-.62 3 3 0 0 0 1.65-2.62v-.77h.77a3.65 3.65 0 0 1-1.69 3.9 6.46 6.46 0 0 1-6.72 0 4.74 4.74 0 0 1-2.1-2.77 7.64 7.64 0 0 1 .15-5.34 4.75 4.75 0 0 1 3.49-3 7.31 7.31 0 0 1 4.67.36 3.77 3.77 0 0 1 2.18 4.18zM163 28.13v.72h-4.6V40h-.92V28.9h-4.58v-.72c3.34-.05 6.73-.05 10.1-.05zM118 28.13h.92v11.14h7V40h-8zM164.35 28.13h.92V40h-.92zM179.29 32.23a4.93 4.93 0 0 0-3.75-4.11 7.71 7.71 0 0 0-2.87-.15 4.89 4.89 0 0 0-3.9 2.67 7.55 7.55 0 0 0-.26 6.31 4.69 4.69 0 0 0 3 2.87 6.68 6.68 0 0 0 3.34.21 5.1 5.1 0 0 0 3.85-2.82 7.87 7.87 0 0 0 .77-3.23 10.74 10.74 0 0 0-.18-1.75zm-1.39 5a5.22 5.22 0 0 1-7.75.87 4.72 4.72 0 0 1-1.23-2.77 7.74 7.74 0 0 1 .31-3.75 4.1 4.1 0 0 1 3.13-2.77 5.39 5.39 0 0 1 3.8.36 4.3 4.3 0 0 1 2.36 3.44 12.32 12.32 0 0 1 .15 1.44 6.22 6.22 0 0 1-.77 3.16z"/><path class="cls-1" d="M73.55 2.31L69.03 0 37.82 15.6l4.52 2.31 31.21-15.6z"/><path class="cls-2" d="M79.81 5.49l-4.57-2.31-31.15 15.55 4.51 2.32L79.81 5.49z"/><path class="cls-3" d="M85.92 8.57l-4.57-2.31-31.16 15.61 4.52 2.31L85.92 8.57z"/><path class="cls-4" d="M37.82 46.76l4.52 2.31V17.91l-4.52-2.31v31.16z"/><path class="cls-5" d="M44.09 49.94l4.51 2.31v-31.2l-4.51-2.32v31.21z"/><path class="cls-6" d="M50.19 53.02l4.52 2.31V24.18l-4.52-2.31v31.15z"/><path class="cls-7" d="M61.59 48.25V27.41l26.02-12.88V9.19l-31.2 15.6V56l31.2-15.45V22.23l-18.42 9.23v5.19l13.24-6.57v7.75L61.59 48.25z"/></svg>